<?xml version="1.0" encoding="UTF-8"?>
<svg xmlns="http://www.w3.org/2000/svg" xmlns:xlink="http://www.w3.org/1999/xlink" width="1180pt" height="786pt" viewBox="0 0 1180 786" version="1.1">
<defs>
<filter id="alpha" filterUnits="objectBoundingBox" x="0%" y="0%" width="100%" height="100%">
  <feColorMatrix type="matrix" in="SourceGraphic" values="0 0 0 0 1 0 0 0 0 1 0 0 0 0 1 0 0 0 1 0"/>
</filter>
<mask id="mask0">
  <g filter="url(#alpha)">
<rect x="0" y="0" width="1180" height="786" style="fill:rgb(0%,0%,0%);fill-opacity:0.101961;stroke:none;"/>
  </g>
</mask>
<clipPath id="clip1">
  <rect x="0" y="0" width="1180" height="786"/>
</clipPath>
<g id="surface5" clip-path="url(#clip1)">
<path style=" stroke:none;fill-rule:nonzero;fill:rgb(0%,0%,0%);fill-opacity:1;" d="M 1058.550781 16.324219 C 1058.320312 17.824219 1058.320312 19.324219 1058.550781 20.824219 C 1058.550781 20.824219 1061.539062 52.714844 1058.089844 66.96875 L 916.398438 668.355469 C 906.277344 712.625 919.847656 761.769531 946.988281 778.652344 C 974.132812 795.53125 1004.265625 773.773438 1015.078125 729.882812 L 1156.769531 128.492188 C 1159.527344 116.863281 1175.398438 93.980469 1175.398438 93.980469 C 1176.089844 92.851562 1176.78125 91.726562 1177.238281 90.605469 L 1177.238281 90.226562 C 1177.238281 89.851562 1177.46875 89.851562 1177.46875 89.476562 C 1181.148438 74.097656 1157.457031 44.835938 1124.796875 24.203125 C 1092.132812 3.566406 1062.460938 -0.5625 1058.78125 15.195312 C 1058.78125 15.195312 1058.550781 15.570312 1058.550781 16.324219 Z M 1058.550781 16.324219 "/>
</g>
<linearGradient id="linear0" gradientUnits="userSpaceOnUse" x1="0.23962" y1="0.46043" x2="0.68784" y2="0.55602" gradientTransform="matrix(264.507813,0,0,778.648437,908.949219,0.421875)">
<stop offset="0" style="stop-color:rgb(56.862745%,56.862745%,56.862745%);stop-opacity:1;"/>
<stop offset="1" style="stop-color:rgb(100%,100%,100%);stop-opacity:1;"/>
</linearGradient>
<linearGradient id="linear1" gradientUnits="userSpaceOnUse" x1="0.26427" y1="0.42381" x2="0.67132" y2="0.51906" gradientTransform="matrix(176.328125,0,0,472.722656,922.707031,283.0625)">
<stop offset="0" style="stop-color:rgb(60%,0%,0%);stop-opacity:1;"/>
<stop offset="1" style="stop-color:rgb(90.980392%,0%,0%);stop-opacity:1;"/>
</linearGradient>
<mask id="mask1">
  <g filter="url(#alpha)">
<rect x="0" y="0" width="1180" height="786" style="fill:rgb(0%,0%,0%);fill-opacity:0.301961;stroke:none;"/>
  </g>
</mask>
<clipPath id="clip2">
  <rect x="0" y="0" width="1180" height="786"/>
</clipPath>
<g id="surface8" clip-path="url(#clip2)">
<path style=" stroke:none;fill-rule:nonzero;fill:rgb(100%,100%,100%);fill-opacity:1;" d="M 1053.457031 15.527344 C 1053.457031 15.527344 1056.425781 47.328125 1052.996094 61.542969 L 912.230469 661.234375 C 902.179688 705.375 915.660156 754.386719 942.625 771.222656 C 947.195312 774.214844 951.996094 776.082031 956.792969 776.457031 C 938.277344 753.398438 931.140625 713.347656 939.195312 677.695312 L 1077.222656 89.976562 C 1077.222656 89.976562 1058.253906 61.167969 1053.457031 15.527344 Z M 1053.457031 15.527344 "/>
</g>
<mask id="mask2">
  <g filter="url(#alpha)">
<rect x="0" y="0" width="1180" height="786" style="fill:rgb(0%,0%,0%);fill-opacity:0.501961;stroke:none;"/>
  </g>
</mask>
<clipPath id="clip3">
  <rect x="0" y="0" width="1180" height="786"/>
</clipPath>
<g id="surface11" clip-path="url(#clip3)">
<path style=" stroke:none;fill-rule:nonzero;fill:rgb(100%,100%,100%);fill-opacity:1;" d="M 1012.324219 402.351562 C 1012.324219 398.632812 1010.484375 395.621094 1008.210938 395.621094 C 1005.9375 395.621094 1004.097656 398.632812 1004.097656 402.351562 C 1004.097656 406.070312 1005.9375 409.085938 1008.210938 409.085938 C 1010.484375 409.085938 1012.324219 406.070312 1012.324219 402.351562 Z M 1012.324219 402.351562 "/>
<path style=" stroke:none;fill-rule:nonzero;fill:rgb(100%,100%,100%);fill-opacity:1;" d="M 1041.117188 450.613281 C 1041.117188 445.035156 1038.355469 440.511719 1034.949219 440.511719 C 1031.539062 440.511719 1028.777344 445.035156 1028.777344 450.613281 C 1028.777344 456.191406 1031.539062 460.714844 1034.949219 460.714844 C 1038.355469 460.714844 1041.117188 456.191406 1041.117188 450.613281 Z M 1041.117188 450.613281 "/>
<path style=" stroke:none;fill-rule:nonzero;fill:rgb(100%,100%,100%);fill-opacity:1;" d="M 1005.695312 508.222656 C 1005.695312 497.683594 1000.476562 489.144531 994.042969 489.144531 C 987.605469 489.144531 982.386719 497.683594 982.386719 508.222656 C 982.386719 518.761719 987.605469 527.304688 994.042969 527.304688 C 1000.476562 527.304688 1005.695312 518.761719 1005.695312 508.222656 Z M 1005.695312 508.222656 "/>
<path style=" stroke:none;fill-rule:nonzero;fill:rgb(100%,100%,100%);fill-opacity:1;" d="M 981.472656 543.390625 C 981.472656 537.8125 978.710938 533.292969 975.304688 533.292969 C 971.898438 533.292969 969.136719 537.8125 969.136719 543.390625 C 969.136719 548.96875 971.898438 553.492188 975.304688 553.492188 C 978.710938 553.492188 981.472656 548.96875 981.472656 543.390625 Z M 981.472656 543.390625 "/>
<path style=" stroke:none;fill-rule:nonzero;fill:rgb(100%,100%,100%);fill-opacity:1;" d="M 1003.867188 618.210938 C 1003.867188 614.492188 1002.027344 611.476562 999.753906 611.476562 C 997.484375 611.476562 995.640625 614.492188 995.640625 618.210938 C 995.640625 621.929688 997.484375 624.941406 999.753906 624.941406 C 1002.027344 624.941406 1003.867188 621.929688 1003.867188 618.210938 Z M 1003.867188 618.210938 "/>
</g>
<mask id="mask3">
  <g filter="url(#alpha)">
<rect x="0" y="0" width="1180" height="786" style="fill:rgb(0%,0%,0%);fill-opacity:0.101961;stroke:none;"/>
  </g>
</mask>
<clipPath id="clip4">
  <rect x="0" y="0" width="1180" height="786"/>
</clipPath>
<g id="surface14" clip-path="url(#clip4)">
<path style=" stroke:none;fill-rule:nonzero;fill:rgb(0%,0%,0%);fill-opacity:1;" d="M 277.632812 365.316406 C 283.84375 373.546875 295.117188 368.683594 302.703125 355.214844 C 310.757812 341 311.90625 322.671875 305.695312 314.4375 C 299.484375 306.207031 288.214844 311.070312 280.625 325.285156 C 272.574219 339.503906 271.191406 357.460938 277.632812 365.320312 Z M 259.003906 391.875 C 257.390625 391.875 254.402344 396.738281 256.929688 398.613281 C 260.382812 400.480469 261.992188 405.34375 261.992188 412.082031 C 259.003906 440.136719 237.609375 471.9375 229.332031 482.785156 C 227.257812 486.152344 230.25 493.632812 232.320312 491.019531 C 236.917969 485.03125 246.582031 472.6875 254.402344 456.226562 C 241.519531 502.988281 216.21875 563.59375 206.558594 584.917969 C 168.835938 669.839844 111.558594 748.027344 72.226562 748.027344 C 40.710938 748.027344 14.035156 713.234375 8.28125 662.359375 C 7.820312 656.742188 3.21875 655.621094 4.140625 663.101562 C 11.269531 733.0625 44.394531 760.371094 84.417969 760.371094 C 128.351562 760.371094 179.875 708.746094 208.398438 655.621094 C 254.402344 569.953125 284.074219 471.1875 276.253906 415.445312 C 273.035156 394.871094 264.0625 391.5 259.003906 391.875 Z M 541.695312 578.558594 C 553.886719 573.691406 563.777344 562.84375 563.777344 545.636719 C 563.777344 543.765625 561.707031 543.765625 561.707031 545.636719 C 561.707031 555.738281 554.578125 564.339844 546.527344 566.210938 C 527.664062 571.074219 490.402344 535.160156 472.917969 498.121094 C 491.78125 509.71875 530.195312 492.886719 548.367188 471.5625 C 565.15625 451.734375 571.828125 430.035156 572.980469 412.453125 C 575.050781 383.273438 555.496094 366.066406 528.125 383.273438 C 510.644531 394.871094 489.710938 419.9375 467.859375 467.074219 C 490.863281 405.34375 536.175781 304.335938 580.570312 239.992188 C 634.625 161.804688 665.90625 176.765625 617.371094 259.820312 C 597.359375 293.863281 559.636719 338.007812 533.644531 357.085938 C 525.59375 362.699219 529.503906 370.179688 535.257812 366.0625 C 562.859375 346.238281 599.660156 305.457031 621.972656 271.414062 C 687.757812 168.539062 632.78125 91.097656 560.097656 199.960938 C 510.644531 274.03125 478.441406 351.476562 450.378906 452.109375 C 440.71875 471.1875 433.585938 486.898438 424.847656 498.871094 C 423.695312 500.367188 423.007812 501.863281 422.316406 503.363281 C 398.164062 537.03125 360.210938 582.671875 336.519531 583.046875 C 319.726562 583.796875 312.597656 563.214844 315.585938 536.660156 C 320.1875 495.128906 346.640625 446.121094 369.179688 429.289062 C 398.394531 407.589844 415.644531 449.867188 377.230469 483.53125 C 362.511719 495.878906 345.03125 502.609375 337.898438 502.609375 C 329.617188 502.609375 330.308594 508.222656 337.4375 508.597656 C 349.167969 509.347656 368.03125 501.117188 380.453125 491.761719 C 419.785156 461.089844 422.316406 403.847656 379.53125 401.980469 C 333.070312 399.359375 277.402344 463.707031 277.863281 544.886719 C 278.324219 581.550781 296.265625 601.378906 320.878906 601.378906 C 362.050781 600.625 398.625 549.75 428.757812 504.859375 C 433.125 498.871094 437.265625 492.511719 441.40625 485.777344 C 430.828125 529.175781 425.535156 569.578125 428.066406 599.503906 C 429.675781 621.207031 437.265625 631.304688 443.246094 639.539062 C 444.398438 641.03125 446.925781 639.539062 445.320312 635.417969 C 436.578125 618.585938 439.109375 568.082031 451.070312 519.074219 C 461.1875 551.996094 500.523438 593.519531 541.695312 578.558594 Z M 492.242188 436.769531 C 540.316406 366.816406 559.175781 429.289062 528.585938 467.445312 C 512.710938 487.273438 481.199219 502.238281 471.3125 492.511719 L 469.238281 490.640625 C 468.089844 487.273438 466.707031 483.90625 465.789062 480.542969 C 473.839844 464.453125 483.042969 450.238281 492.242188 436.769531 Z M 759.523438 357.085938 C 778.847656 360.453125 770.792969 322.292969 751.242188 332.023438 C 742.503906 336.132812 733.992188 363.445312 727.78125 387.015625 C 708.460938 433.777344 676.257812 497.75 653.714844 531.417969 C 633.703125 559.476562 615.304688 566.960938 637.84375 514.582031 C 647.046875 493.632812 658.777344 471.1875 665.445312 448.742188 C 681.320312 392.253906 647.503906 367.1875 620.132812 401.226562 C 604.261719 421.058594 582.871094 461.832031 566.078125 484.28125 C 561.476562 490.265625 562.628906 499.242188 567.230469 493.257812 C 580.570312 475.679688 604.03125 435.273438 624.273438 411.703125 C 641.066406 390.757812 647.734375 404.222656 638.074219 421.804688 C 624.734375 446.871094 601.269531 490.640625 595.292969 518.324219 C 587.011719 559.851562 596.898438 578.179688 613.691406 578.179688 C 636.691406 578.179688 670.964844 519.824219 693.96875 473.433594 C 701.558594 457.722656 709.839844 439.390625 716.96875 421.804688 C 696.957031 485.03125 676.027344 549 650.035156 606.988281 C 613.230469 688.542969 567.226562 749.898438 523.523438 749.898438 C 492.011719 749.898438 464.871094 715.105469 459.117188 664.226562 C 458.65625 658.613281 454.519531 657.492188 454.976562 664.976562 C 462.109375 734.929688 495.230469 762.242188 535.253906 762.242188 C 579.1875 762.242188 621.511719 720.714844 651.183594 669.839844 C 710.992188 566.957031 718.121094 451.363281 736.523438 386.640625 C 745.261719 357.085938 753.085938 355.96875 759.523438 357.085938 Z M 1002.886719 258.316406 C 1011.625 234 1011.164062 214.921875 990.691406 214.921875 C 975.28125 215.671875 947.21875 233.253906 934.109375 249.710938 C 931.117188 254.578125 932.5 257.191406 936.179688 254.578125 C 938.707031 253.082031 941.699219 250.460938 944.460938 248.59375 C 959.179688 235.496094 953.199219 262.808594 949.980469 272.910156 C 932.5 322.667969 901.445312 392.621094 885.117188 427.414062 C 877.363281 444.429688 868.992188 460.667969 860.042969 476.046875 C 844.402344 500.367188 813.347656 543.386719 789.65625 557.601562 C 713.519531 603.988281 810.589844 392.996094 818.640625 375.789062 C 836.582031 339.125 876.832031 275.152344 889.023438 242.980469 C 897.765625 218.660156 897.308594 199.582031 876.832031 199.582031 C 861.421875 200.335938 833.359375 217.914062 820.25 234.375 C 817.257812 239.238281 818.640625 241.855469 822.320312 239.238281 C 824.851562 237.742188 827.839844 235.125 830.601562 233.253906 C 845.324219 220.160156 839.34375 247.46875 836.121094 257.574219 C 818.640625 307.324219 787.585938 377.285156 771.253906 412.078125 C 757.914062 441.257812 741.582031 470.433594 728.929688 486.894531 C 723.871094 493.632812 726.863281 499.992188 731.921875 494.378906 C 736.523438 489.515625 743.191406 478.667969 750.785156 465.945312 C 736.980469 510.839844 725.710938 574.066406 762.054688 581.546875 C 793.109375 588.277344 829.910156 537.027344 853.832031 498.867188 L 862.34375 485.027344 L 864.414062 481.660156 C 850.613281 526.550781 839.34375 589.777344 875.683594 597.257812 C 915.476562 606.238281 964.929688 519.070312 984.027344 486.894531 C 987.703125 480.910156 986.554688 470.433594 980.34375 480.910156 C 969.074219 499.992188 930.886719 556.480469 903.289062 573.3125 C 827.148438 619.703125 924.21875 408.707031 932.269531 391.5 C 950.441406 354.089844 990.691406 290.117188 1002.886719 258.320312 Z M 1002.886719 258.316406 "/>
</g>
<linearGradient id="linear2" gradientUnits="userSpaceOnUse" x1="0.5" y1="0.99822" x2="0.5" y2="-0.00044" gradientTransform="matrix(1003.371094,0,0,614.679688,0.230469,141.207031)">
<stop offset="0" style="stop-color:rgb(10.196078%,10.196078%,10.196078%);stop-opacity:1;"/>
<stop offset="0.4026" style="stop-color:rgb(29.019608%,29.019608%,29.803922%);stop-opacity:1;"/>
<stop offset="1" style="stop-color:rgb(20%,20%,20%);stop-opacity:1;"/>
</linearGradient>
</defs>
<g id="surface1">
<use xlink:href="#surface5" mask="url(#mask0)"/>
<path style=" stroke:none;fill-rule:nonzero;fill:url(#linear0);" d="M 1054.410156 11.066406 C 1054.179688 12.570312 1054.179688 14.070312 1054.410156 15.570312 C 1054.410156 15.570312 1057.398438 47.457031 1053.949219 61.714844 L 912.257812 663.101562 C 902.140625 707.371094 915.710938 756.515625 942.851562 773.398438 C 969.996094 790.28125 1000.125 768.523438 1010.9375 724.628906 L 1152.628906 123.242188 C 1155.390625 111.613281 1171.261719 88.726562 1171.261719 88.726562 C 1171.953125 87.601562 1172.644531 86.476562 1173.101562 85.351562 L 1173.101562 84.976562 C 1173.101562 84.601562 1173.332031 84.601562 1173.332031 84.222656 C 1177.011719 68.84375 1153.320312 39.582031 1120.65625 18.945312 C 1087.992188 -1.6875 1058.320312 -5.8125 1054.640625 9.945312 C 1054.640625 10.320312 1054.640625 10.695312 1054.410156 11.070312 Z M 1054.410156 11.066406 "/>
<path style=" stroke:none;fill-rule:nonzero;fill:url(#linear1);" d="M 1099.035156 283.0625 L 996.671875 716.75 C 989.085938 747.890625 967.230469 764.019531 947.679688 751.640625 C 928.128906 739.257812 917.777344 702.871094 924.910156 671.730469 L 990.234375 394.484375 C 990.234375 394.484375 998.285156 373.101562 1014.386719 357.722656 C 1030.488281 342.335938 1043.597656 345.710938 1061.3125 332.957031 C 1079.25 320.203125 1099.035156 283.0625 1099.035156 283.0625 Z M 1099.035156 283.0625 "/>
<path style=" stroke:none;fill-rule:nonzero;fill:rgb(20%,20%,20%);fill-opacity:1;" d="M 1148.671875 71.679688 C 1150.710938 63 1136.035156 45.683594 1115.894531 33 C 1095.75 20.320312 1077.769531 17.070312 1075.730469 25.746094 C 1073.691406 34.425781 1088.367188 51.738281 1108.507812 64.425781 C 1128.652344 77.109375 1146.632812 80.355469 1148.671875 71.679688 Z M 1148.671875 71.679688 "/>
<use xlink:href="#surface8" mask="url(#mask1)"/>
<use xlink:href="#surface11" mask="url(#mask2)"/>
<use xlink:href="#surface14" mask="url(#mask3)"/>
<path style=" stroke:none;fill-rule:nonzero;fill:url(#linear2);" d="M 273.492188 358.957031 C 279.703125 367.1875 290.972656 362.324219 298.566406 348.855469 C 306.617188 334.636719 307.765625 316.308594 301.554688 308.078125 C 295.34375 299.84375 284.074219 304.710938 276.484375 318.925781 C 268.433594 333.140625 267.28125 350.726562 273.492188 358.957031 Z M 255.09375 385.519531 C 253.480469 385.519531 250.492188 390.378906 253.023438 392.253906 C 256.472656 394.125 258.082031 398.984375 258.082031 405.71875 C 255.09375 433.777344 233.699219 465.578125 225.417969 476.425781 C 223.347656 479.792969 226.339844 487.273438 228.410156 484.660156 C 233.011719 478.671875 242.667969 466.324219 250.492188 449.867188 C 237.609375 496.625 212.308594 557.230469 202.648438 578.558594 C 164.921875 663.480469 107.648438 741.664062 68.316406 741.664062 C 36.804688 741.664062 10.121094 706.871094 4.371094 656 C 3.910156 650.382812 -0.6875 649.261719 0.230469 656.742188 C 7.359375 726.699219 40.484375 754.011719 80.507812 754.011719 C 124.441406 754.011719 175.964844 702.382812 204.488281 649.261719 C 250.488281 563.59375 280.164062 464.828125 272.34375 409.089844 C 268.890625 388.136719 260.152344 384.769531 255.09375 385.519531 Z M 537.554688 572.195312 C 549.746094 567.332031 559.636719 556.484375 559.636719 539.277344 C 559.636719 537.402344 557.566406 537.402344 557.566406 539.277344 C 557.566406 549.375 550.4375 557.980469 542.386719 559.851562 C 523.523438 564.710938 486.261719 528.804688 468.78125 491.761719 C 487.640625 503.363281 526.054688 486.527344 544.226562 465.203125 C 561.019531 445.375 567.6875 423.675781 568.839844 406.09375 C 570.90625 376.910156 551.355469 359.707031 523.984375 376.910156 C 506.503906 388.511719 485.570312 413.578125 463.71875 460.714844 C 486.71875 398.984375 532.035156 297.976562 576.429688 233.632812 C 630.484375 155.445312 661.765625 170.40625 613.230469 253.460938 C 593.21875 287.5 555.5 331.644531 529.503906 350.726562 C 521.453125 356.339844 525.363281 363.820312 531.117188 359.703125 C 558.71875 339.878906 595.519531 299.101562 617.832031 265.054688 C 683.617188 162.179688 628.644531 84.734375 555.957031 193.601562 C 506.503906 267.300781 474.300781 345.113281 446.238281 445.75 C 436.578125 464.828125 429.445312 480.542969 420.703125 492.511719 C 419.554688 494.007812 418.867188 495.507812 418.175781 497.003906 C 394.023438 530.671875 356.070312 576.3125 332.378906 576.683594 C 315.585938 577.4375 308.453125 556.855469 311.445312 530.300781 C 316.046875 488.769531 342.5 439.761719 365.042969 422.929688 C 394.253906 401.230469 411.503906 443.503906 373.09375 477.171875 C 358.371094 489.519531 340.886719 496.253906 333.757812 496.253906 C 325.476562 496.253906 326.167969 501.863281 333.296875 502.238281 C 345.027344 502.988281 363.890625 494.757812 376.3125 485.402344 C 415.644531 454.730469 418.175781 397.488281 375.390625 395.621094 C 328.925781 393 273.261719 457.347656 273.722656 538.527344 C 274.183594 575.1875 292.125 595.015625 316.738281 595.015625 C 357.910156 594.265625 394.484375 543.390625 424.617188 498.5 C 428.984375 492.511719 433.125 486.152344 437.269531 479.417969 C 426.683594 522.816406 421.394531 563.214844 423.925781 593.144531 C 425.539062 614.847656 433.125 624.945312 439.109375 633.179688 C 440.257812 634.671875 442.789062 633.179688 441.175781 629.0625 C 432.4375 612.226562 434.964844 561.71875 446.925781 512.714844 C 457.277344 545.636719 496.613281 587.160156 537.554688 572.195312 Z M 488.101562 430.03125 C 536.175781 360.078125 555.039062 422.554688 524.445312 460.714844 C 508.574219 480.542969 477.0625 495.507812 467.167969 485.777344 L 465.101562 483.90625 C 463.949219 480.542969 462.570312 477.175781 461.648438 473.804688 C 469.699219 458.09375 478.898438 443.503906 488.101562 430.035156 Z M 755.382812 350.730469 C 774.703125 354.097656 766.65625 315.9375 747.105469 325.664062 C 738.363281 329.777344 729.851562 357.089844 723.640625 380.660156 C 704.320312 427.421875 672.117188 491.394531 649.574219 525.0625 C 629.5625 553.121094 611.160156 560.605469 633.703125 508.226562 C 642.902344 487.277344 654.636719 464.832031 661.308594 442.386719 C 677.175781 385.894531 643.363281 360.832031 615.992188 394.871094 C 600.121094 414.699219 578.730469 455.476562 561.9375 477.925781 C 557.339844 483.910156 558.488281 492.886719 563.089844 486.902344 C 576.429688 469.320312 599.890625 428.917969 620.132812 405.347656 C 636.921875 384.398438 643.59375 397.867188 633.933594 415.449219 C 620.59375 440.515625 597.128906 484.285156 591.148438 511.972656 C 582.871094 553.496094 592.761719 571.824219 609.550781 571.824219 C 632.550781 571.824219 666.828125 513.46875 689.828125 467.078125 C 697.417969 451.367188 705.699219 433.03125 712.828125 415.449219 C 692.820312 478.675781 671.886719 542.648438 645.894531 600.632812 C 609.089844 682.1875 563.089844 743.542969 519.382812 743.542969 C 487.871094 743.542969 460.730469 708.75 454.976562 657.871094 C 454.515625 652.257812 450.378906 651.136719 450.839844 658.617188 C 457.96875 728.574219 491.09375 755.886719 531.113281 755.886719 C 575.050781 755.886719 617.371094 714.359375 647.046875 663.484375 C 706.851562 560.601562 713.980469 445.003906 732.382812 380.285156 C 741.121094 350.730469 749.171875 349.234375 755.382812 350.730469 Z M 998.746094 251.589844 C 1007.484375 227.273438 1007.027344 208.191406 986.554688 208.191406 C 971.140625 208.941406 943.082031 226.523438 929.96875 242.984375 C 926.976562 247.847656 928.359375 250.464844 932.039062 247.847656 C 934.570312 246.351562 937.558594 243.730469 940.320312 241.859375 C 955.042969 228.769531 949.0625 256.078125 945.839844 266.179688 C 928.359375 315.933594 897.308594 385.890625 880.972656 420.683594 C 873.222656 437.699219 864.851562 453.941406 855.902344 469.316406 C 840.261719 493.632812 809.210938 536.65625 785.519531 550.871094 C 709.378906 597.261719 806.449219 386.269531 814.5 369.054688 C 832.441406 332.394531 872.691406 268.425781 884.886719 236.25 C 893.625 211.929688 893.164062 192.855469 872.691406 192.855469 C 857.28125 193.601562 829.21875 211.183594 816.109375 227.644531 C 813.117188 232.507812 814.5 235.128906 818.179688 232.507812 C 820.707031 231.011719 823.699219 228.394531 826.460938 226.523438 C 841.179688 213.429688 835.199219 240.738281 831.980469 250.839844 C 814.5 300.597656 783.445312 370.554688 767.117188 405.34375 C 753.773438 434.523438 737.441406 463.707031 724.792969 480.167969 C 719.730469 486.898438 722.722656 493.257812 727.78125 487.648438 C 732.382812 482.785156 739.050781 471.933594 746.644531 459.21875 C 732.84375 504.109375 721.570312 567.332031 757.914062 574.816406 C 788.964844 581.550781 825.769531 530.296875 849.691406 492.136719 L 858.203125 478.292969 L 860.273438 474.929688 C 846.472656 519.824219 835.199219 583.046875 871.542969 590.527344 C 911.339844 599.503906 960.792969 512.34375 979.882812 480.167969 C 983.5625 474.183594 982.414062 463.707031 976.203125 474.183594 C 964.933594 493.257812 926.75 549.75 899.144531 566.585938 C 823.011719 612.972656 920.078125 401.980469 928.128906 384.769531 C 946.53125 347.359375 986.550781 283.390625 998.742188 251.589844 Z M 998.746094 251.589844 "/>
</g>
</svg>
