<?xml version="1.0" encoding="UTF-8"?>
<svg xmlns="http://www.w3.org/2000/svg" xmlns:xlink="http://www.w3.org/1999/xlink" width="1180pt" height="786pt" viewBox="0 0 1180 786" version="1.1">
<g id="surface1">
<path style=" stroke:none;fill-rule:nonzero;fill:rgb(0%,0%,0%);fill-opacity:1;" d="M 1180.273438 415.398438 L 972.335938 415.398438 L 972.335938 486.671875 L 1046.296875 486.671875 L 1046.296875 785.539062 L 1106.34375 785.539062 L 1106.34375 486.671875 L 1180.273438 486.671875 Z M 1180.273438 415.398438 "/>
<path style=" stroke:none;fill-rule:nonzero;fill:rgb(0%,0%,0%);fill-opacity:1;" d="M 950.660156 486.671875 L 950.660156 415.398438 L 742.71875 415.398438 L 742.71875 785.539062 L 950.660156 785.539062 L 950.660156 714.269531 L 802.769531 714.269531 L 802.769531 636.128906 L 917.546875 636.128906 L 917.546875 564.859375 L 802.769531 564.859375 L 802.769531 486.671875 Z M 950.660156 486.671875 "/>
<path style=" stroke:none;fill-rule:nonzero;fill:rgb(0%,0%,0%);fill-opacity:1;" d="M 535.914062 415.398438 L 475.863281 415.398438 L 475.863281 785.539062 L 535.914062 785.539062 L 535.914062 547.714844 L 653.75 785.539062 L 713.796875 785.539062 L 713.796875 415.398438 L 653.75 415.398438 L 653.75 653.273438 Z M 535.914062 415.398438 "/>
<path style=" stroke:none;fill-rule:nonzero;fill:rgb(0%,0%,0%);fill-opacity:1;" d="M 375.976562 628.269531 L 458.863281 415.398438 L 399.398438 415.398438 L 345.953125 551.882812 L 292.539062 415.398438 L 232.613281 415.398438 L 315.929688 628.269531 L 315.929688 714.269531 L 282.050781 714.269531 L 282.050781 785.539062 L 409.882812 785.539062 L 409.882812 714.269531 L 375.976562 714.269531 Z M 375.976562 628.269531 "/>
<path style=" stroke:none;fill-rule:nonzero;fill:rgb(0%,0%,0%);fill-opacity:1;" d="M 223.378906 586.785156 C 237.882812 552.902344 239.1875 509.414062 226.777344 473.59375 C 214.367188 437.773438 190.25 415.414062 164.003906 415.398438 L 0.273438 415.398438 L 0.273438 785.539062 L 180.664062 785.539062 C 211.410156 785.621094 238.71875 755.148438 248.402344 709.957031 C 258.085938 664.765625 247.960938 615.046875 223.285156 586.640625 Z M 175.164062 525.789062 C 175.164062 536.183594 172.488281 546.148438 167.730469 553.480469 C 162.972656 560.8125 156.527344 564.90625 149.816406 564.859375 L 60.324219 564.859375 L 60.324219 486.71875 L 149.816406 486.71875 C 156.527344 486.667969 162.972656 490.761719 167.730469 498.09375 C 172.488281 505.425781 175.164062 515.394531 175.164062 525.789062 Z M 166.691406 714.269531 L 60.324219 714.269531 L 60.324219 636.128906 L 166.691406 636.128906 C 180.625 636.128906 191.917969 653.621094 191.917969 675.199219 C 191.917969 696.777344 180.625 714.269531 166.691406 714.269531 Z M 166.691406 714.269531 "/>
<path style=" stroke:none;fill-rule:nonzero;fill:rgb(0%,0%,0%);fill-opacity:1;" d="M 861.410156 0.460938 L 795.890625 0.460938 L 721.839844 149.871094 L 687.472656 149.871094 L 687.472656 0.460938 L 627.421875 0.460938 L 627.421875 370.601562 L 687.472656 370.601562 L 687.472656 221.191406 L 720.859375 221.191406 L 795.003906 370.601562 L 860.433594 370.601562 L 769.230469 186.523438 Z M 861.410156 0.460938 "/>
<path style=" stroke:none;fill-rule:nonzero;fill:rgb(0%,0%,0%);fill-opacity:1;" d="M 420.617188 0.460938 L 360.566406 0.460938 L 360.566406 370.601562 L 420.617188 370.601562 L 420.617188 132.773438 L 538.449219 370.601562 L 598.5 370.601562 L 598.5 0.460938 L 538.449219 0.460938 L 538.449219 238.332031 Z M 420.617188 0.460938 "/>
<path style=" stroke:none;fill-rule:nonzero;fill:rgb(0%,0%,0%);fill-opacity:1;" d="M 331.644531 71.730469 L 331.644531 0.460938 L 203.8125 0.460938 L 203.8125 71.730469 L 237.71875 71.730469 L 237.71875 299.328125 L 203.8125 299.328125 L 203.8125 370.601562 L 331.644531 370.601562 L 331.644531 299.328125 L 297.765625 299.328125 L 297.765625 71.730469 Z M 331.644531 71.730469 "/>
<path style=" stroke:none;fill-rule:nonzero;fill:rgb(0%,0%,0%);fill-opacity:1;" d="M 60.324219 299.328125 L 60.324219 0.460938 L 0.273438 0.460938 L 0.273438 370.601562 L 175.132812 370.601562 L 175.132812 299.328125 Z M 60.324219 299.328125 "/>
</g>
</svg>
